# xmcd
#
# Track frame offsets: 
#        150
#        21353
#        43284
#        66288
#        80810
#        94854
#        113146
#        129264
#        143918
#        159207
#        173682
#        191190
#
# Disc length: 2721 seconds
#
# Revision: 1
# Processed by: cddbd v1.5.2PL0 Copyright (c) Steve Scherf et al.
# Submitted via: ExactAudioCopy v1.1
#
DISCID=a60a9f0c
DTITLE=David Bowie - Re:Call 1 [CD2]
DYEAR=2015
DGENRE=Rock
TTITLE0=Space Oddity (UK Mono Single Edit)
TTITLE1=Wild Eyed Boy From Freecloud (UK Mono Single)
TTITLE2=Ragazzo Solo, Ragazza Sola
TTITLE3=The Prettiest Star (Mono Single)
TTITLE4=Conversation Piece
TTITLE5=Memory Of A Free Festival (Part 1)
TTITLE6=Memory Of A Free Festival (Part 2)
TTITLE7=All The Madmen (Mono Single Edit)
TTITLE8=Janine
TTITLE9=Holy Holy (Mono Single)
TTITLE10=Moonage Daydream (Arnold Corns Single Version)
TTITLE11=Hang On To Yourself (Arnold Corns Single Version)
EXTD=
EXTT0=
EXTT1=
EXTT2=
EXTT3=
EXTT4=
EXTT5=
EXTT6=
EXTT7=
EXTT8=
EXTT9=
EXTT10=
EXTT11=
PLAYORDER=
